<?xml version="1.0" encoding="UTF-8"?>
<svg id="Marks" xmlns="http://www.w3.org/2000/svg" version="1.1" viewBox="0 0 1002.59 293.82">
  <defs>
    <style>
      .cls-1 {
        fill: #041e42;
      }

      .cls-1, .cls-2 {
        stroke-width: 0px;
      }

      .cls-2 {
        fill: none;
      }
    </style>
  </defs>
  <rect class="cls-2" width="1002.59" height="293.82"/>
  <path class="cls-1" d="M141.59,159.22c9.79,23.93.14,36.66-28.82,36.66h-9.51v-2.24c20.57-1.82,28.96-12.31,22.53-28.12l-27.84-67.58h27.56c22.53,0,30.22,5.18,38.06,12.59l89.12,85.35h-23.23l-93.6-89.68c-5.04-4.76-6.86-5.6-10.49-5.6h-7.84l24.06,58.62ZM904.65,162.9v-63.6h-13.08v40.88l-28.16-40.88h-13.36v63.6h13.17v-40.79l28.25,40.79h13.17ZM804.53,151.63c-10.99,0-19.9-8.54-19.9-20.53s8.99-20.53,19.9-20.53,19.9,8.54,19.9,20.53-8.99,20.53-19.9,20.53ZM804.53,164.26c18.99,0,33.8-14.9,33.8-33.16s-14.81-33.16-33.8-33.16-33.8,14.9-33.8,33.16,14.72,33.16,33.8,33.16ZM758.56,99.3h-13.72v63.6h13.72v-63.6ZM715.68,162.9v-51.06h19.71v-12.54h-53.33v12.54h19.71v51.06h13.9ZM646.27,137.19l8.54-22.71,8.54,22.71h-17.08ZM687.61,162.9l-24.62-63.6h-15.9l-24.62,63.6h14.08l5.09-13.54h26.35l5.09,13.54h14.54ZM613.92,99.3h-13.72v63.6h13.72v-63.6ZM527.25,99.3l24.62,63.6h15.17l24.62-63.6h-14.26l-17.72,46.97-17.72-46.97h-14.72ZM492.37,137.19l8.54-22.71,8.54,22.71h-17.08ZM533.7,162.9l-24.62-63.6h-15.9l-24.62,63.6h14.08l5.09-13.54h26.35l5.09,13.54h14.54ZM437.22,162.9v-51.06h19.71v-12.54h-53.33v12.54h19.71v51.06h13.9ZM395.97,162.9v-12.54h-31.71v-13.63h28.53v-12.17h-28.53v-12.72h31.71v-12.54h-45.52v63.6h45.52ZM290.5,140.37c.45,14.9,9.45,23.89,23.98,23.89s24.26-9.9,24.26-23.71v-41.25h-13.81v41.25c0,6.63-4.27,11.08-10.45,11.08s-9.9-4-10.27-11.27h-13.72ZM300.87,180.05l-10.38,15.83h5.98l1.82-3.04h12.31l1.96,3.04h6.34l-10.34-15.83h-7.69ZM300.55,189.1l3.86-6.19h.18l3.9,6.19h-7.94ZM329.98,187.95c0,4.8,3.87,7.93,8.49,7.93h14.34v-9.82h-10.88v3.48h5.65v2.54h-7.6c-2.5,0-4.67-1.44-4.67-4.13s2.17-4.1,4.67-4.1h12.84v-3.8h-14.34c-4.65,0-8.49,3.11-8.49,7.91ZM357.15,195.88h18.23v-3.8h-12.99v-2.54h12.99v-3.48h-12.99v-2.22h12.99v-3.8h-18.23v15.83ZM396.17,190.34h-.09l-9.51-10.29h-7.27v15.83h5.02v-11.05h.06l10.32,11.05h6.26v-15.83h-4.78v10.29ZM405.29,195.88h18.23v-3.8h-12.99v-2.54h12.99v-3.48h-12.99v-2.22h12.99v-3.8h-18.23v15.83ZM449.06,185.54c0-3.89-3.26-5.5-6.74-5.5h-14.9v15.83h5.24v-4.96h6.56l3.58,4.96h5.98c-1.37-1.8-2.74-3.61-4.09-5.43,2.56-.59,4.37-2.08,4.37-4.91ZM441.26,187.36h-8.6v-3.76h8.6c1.22,0,2.35.52,2.35,1.89s-1.16,1.87-2.35,1.87ZM460.74,180.05l-10.38,15.83h5.98l1.82-3.04h12.31l1.95,3.04h6.34l-10.34-15.83h-7.69ZM460.42,189.1l3.86-6.19h.17l3.91,6.19h-7.95ZM486.18,180.05h-5.24v15.83h18.12v-3.8h-12.88v-12.03ZM527.35,180.05h-15.05v15.83h15.05c4.61,0,8.47-3.13,8.47-7.9s-3.85-7.93-8.47-7.93ZM525.83,192.08h-8.29v-8.23h8.29c2.51,0,4.7,1.43,4.7,4.12s-2.18,4.11-4.7,4.11ZM549.43,186.34l-6.44-6.29h-6.74l10.25,10.35v5.48h5.21v-5.51l10.32-10.32h-6.26l-6.35,6.29ZM581.09,190.34h-.09l-9.51-10.29h-7.28v15.83h5.01v-11.05h.06l10.32,11.05h6.26v-15.83h-4.78v10.29ZM598.42,180.05l-10.38,15.83h5.97l1.83-3.04h12.31l1.96,3.04h6.34l-10.34-15.83h-7.69ZM598.1,189.1l3.86-6.19h.18l3.91,6.19h-7.95ZM633.08,191.17h-.14l-5.99-11.12h-8.32v15.83h4.98v-12.04h.15l6.61,12.04h5.08l6.78-12.04h.13v12.04h4.94v-15.83h-8.25l-5.96,11.12ZM651.64,195.88h5.24v-15.83h-5.24v15.83ZM660.35,187.97c0,4.78,3.87,7.9,8.5,7.9h12.97v-3.8h-11.47c-2.5,0-4.67-1.44-4.67-4.11s2.17-4.12,4.67-4.12h11.47v-3.8h-12.97c-4.65,0-8.5,3.11-8.5,7.93ZM701.36,185.86h-9.5c-.66,0-1.35-.3-1.35-1.08s.64-1.09,1.35-1.09h14.23v-3.65h-15.89c-2.79,0-4.91,2.15-4.91,4.9s2.15,4.94,4.91,4.94h9.48c.82,0,1.65.19,1.65,1.17s-.84,1.17-1.65,1.17h-14.12v3.65h15.79c2.91,0,5.28-2,5.28-4.99s-2.37-5.03-5.28-5.03ZM719.03,187.97c0,4.78,3.87,7.9,8.49,7.9h12.97v-3.8h-11.46c-2.5,0-4.68-1.44-4.68-4.11s2.18-4.12,4.68-4.12h11.46v-3.8h-12.97c-4.65,0-8.49,3.11-8.49,7.93ZM759.12,180.05h-7.54c-4.66,0-8.5,3.11-8.5,7.93s3.87,7.9,8.5,7.9h7.54c4.64,0,8.51-3.09,8.51-7.9s-3.87-7.93-8.51-7.93ZM757.75,192.08h-4.56c-2.5,0-4.68-1.42-4.68-4.11s2.17-4.12,4.68-4.12h4.56c2.5,0,4.69,1.43,4.69,4.12s-2.19,4.11-4.69,4.11ZM785.56,191.17h-.13l-5.99-11.12h-8.32v15.83h4.97v-12.04h.15l6.63,12.04h5.06l6.78-12.04h.12v12.04h4.96v-15.83h-8.26l-5.97,11.12ZM819.31,180.05h-15.18v15.83h5.24v-4.96h9.95c3.63,0,6.45-1.52,6.45-5.45s-2.83-5.43-6.45-5.43ZM818.22,187.36h-8.86v-3.76h8.86c1.24,0,2.19.55,2.19,1.89s-.94,1.87-2.19,1.87ZM834.84,180.05l-10.38,15.83h5.98l1.82-3.04h12.32l1.95,3.04h6.34l-10.34-15.83h-7.69ZM834.51,189.1l3.87-6.19h.17l3.92,6.19h-7.95ZM871.92,190.34h-.09l-9.51-10.29h-7.27v15.83h5.01v-11.05h.06l10.33,11.05h6.25v-15.83h-4.78v10.29ZM898.39,180.05l-6.37,6.29-6.42-6.29h-6.73l10.24,10.35v5.48h5.21v-5.51l10.32-10.32h-6.26Z"/>
</svg>