<?xml version="1.0" encoding="UTF-8"?>
<svg width="320" height="132" version="1.1" viewBox="0 0 320 132" xmlns="http://www.w3.org/2000/svg">
 <g fill="#1487b5">
  <path d="m17.483 75.175v-15.161h12.678l1.3425-4.9651h-14.02v-14.088h16.032v-4.9613h-22.941l0.87031 6.1701v12.879h-7.6039l0.73568 4.9747h6.8682v20.113h21.466l1.3425-4.9622z"/>
  <path d="m44.987 42.17-0.87127-6.1701h6.9096v39.04h17.307l-1.3435 5.0969h-22.002z"/>
  <path d="m76.247 42.17-0.87127-6.1701h22.941v4.9622h-16.031v14.088h14.019l-1.3425 4.9641h-12.677v15.161h16.771l-1.3435 4.9622h-21.465z"/>
  <path d="m117.1 53.774-2.2138-4.4256v25.759l0.66836 5.0295h-6.1701v-37.967l-0.87031-6.1701h4.4246l19.991 28.507 18.111-28.507h3.7563v39.107l0.67125 5.0295h-6.7067v-31.058l-2.3484 4.6949-13.751 21.401z"/>
  <path d="m168.54 42.17-0.87416-6.1701h22.944v4.9622h-16.034v14.088h14.02l-1.3406 4.9641h-12.68v15.161h16.771l-1.3406 4.9622h-21.465z"/>
  <path d="m237.97 75.108 0.40198 5.0295h-3.1524l-25.155-28.172-2.885-4.3612v27.504l0.67125 5.0295h-6.173v-37.967l-0.87032-6.1701h4.09l24.622 27.906 2.9504 4.3573v-26.093l-0.87128-6.1701h6.372z"/>
  <path d="m245.08 36h34.614v5.0969h-14.489v34.01l0.66836 5.0295h-6.7067v-39.04h-14.088z"/>
  <path d="m282.17 78.46 20.996-33.272 2.9533-4.0236h-22.474l1.4781-5.1642h29.917l0.26734 1.6743-20.929 33.207-3.085 4.1583h24.752v5.0969h-33.607z"/>
  <text x="0.70439327"><tspan x="59.546204 68.778297 77.964203 87.904053 97.136131 107.7222 114.0616 123.29367 136.34161 147.37395 156.606 162.29915 172.62367 183.20979 194.2421 207.3978 213.73715 223.36926 232.60136 243.63365 253.26579" y="95.846207">EXPERIENCE ARCHITECTS</tspan></text>
  <path d="m265 91.4h50" fill="none" stroke="#1487b5"/>
  <path d="m5 91.4h50" fill="none" stroke="#1487b5"/>
 </g>
</svg>
